Patient4_TMGait_0pt2_02_left_20_EMG.mot
version=1
nRows=30
nColumns=33
inDegrees=no
endheader
time	1LAddLong	2LGlutMax	3LGlutMed	4LIliopsoas	5LSemiMemb	6LBicFemLong	7LRecFem	8LVastMed	9LVastLat	10LGasMed	11LTibAnt	12lTibPost	13LPeroneusLong	14LSol	15LExtDigLong	16LFlexDigLong	17RAddLong	18RGlutMax	19RGlutMed	20RIliopsoas	21RSemiMemb	22RBicFemLong	23RRecFem	24RVastMed	25RVastLat	26RGasMed	27RTibAnt	28RTibPost	29RPeroneusLong	30RSol	31RExtDigLong	32RFlexDigLong
46.84	-0.008545	0.033112	0.035095	0.011139	0.035095	0.023346	0.22079	-0.026093	0.037231	-0.067444	-0.19531	0.005951	0.03418	0.098419	-0.040588	0.011292	-0.048218	-0.011139	0.095367	0.029144	0.61737	0.075073	0.006866	0.233	0.092163	0.006866	0.011292	-0.009155	-0.076752	-0.00061	-0.002136	-0.011749
46.841	-0.013428	0.03479	-0.027161	-0.009155	0.022888	0.041046	0.4361	-0.020905	-0.18723	-0.036774	-0.058899	-0.002136	0.081329	0.005646	0.15961	-0.00824	-0.06134	-0.045013	0.33661	-0.07782	0.68634	0.067444	-0.000916	0.30533	0.098572	0.000458	0.025177	-0.006256	-0.19043	-0.012512	-0.001526	-0.005341
46.842	-0.016937	0.039215	0.039063	0.004883	0.010986	-0.043182	0.30731	0.005035	-0.31662	-0.039673	-0.17731	-0.000305	0.13992	-0.057373	-0.1532	0.005188	-0.067749	-0.030518	0.001984	-0.12161	0.78369	0.095062	0.053253	0.30701	0.10925	0.003357	0.027008	-0.009766	-0.13412	0.036774	-0.006714	-0.008698
46.843	0.00412	0.040894	0.010681	-0.026398	-0.043335	-0.046844	0.14587	0.005035	-0.15961	-0.019226	-0.18143	0.003815	0.075836	-0.073853	-0.3215	-0.000305	-0.037384	-0.07019	-0.25971	-0.094299	0.70526	0.077362	-0.028381	0.17868	0.11932	0.001984	0.036774	-0.007935	-0.10529	0.015411	-0.007935	-0.005646
46.844	0.02121	0.026703	-0.042419	0.00946	-0.051727	-0.036316	0.070496	-0.018005	-0.024567	-0.00473	-0.17929	0.003052	-0.015106	0.014038	-0.15533	-0.004883	0.011902	-0.048981	-0.19928	-0.002289	0.616	0.055542	-0.036621	0.11734	0.053558	0.001678	0.014496	-0.011749	-0.08606	0.024872	-0.006256	-0.002899
46.845	0.025024	0.036926	-0.035858	-0.001831	0.020752	-0.012817	0.09613	-0.037079	-0.033569	0.01297	-0.17532	0.006104	0.035858	-0.028687	-0.26321	-0.000305	0.049744	-0.046844	-0.14908	0.009766	0.52246	0.005341	-0.039215	0.048218	0.03891	0.00061	0.005188	-0.009918	-0.058899	0.037384	-0.006561	-0.006561
46.846	0.017853	0.01709	0.001373	0.018311	0.011902	0.017242	0.036774	-0.025482	-0.059662	0.014496	-0.12741	-0.011139	0.076447	-0.13794	-0.16037	0.002441	0.057678	-0.027466	-0.039215	-0.047455	0.33066	0.007629	-0.027618	0.041199	0.084991	-0.002441	0.019226	-0.005646	-0.088348	0.026398	0.000763	-0.006866
46.847	0.018921	0.039673	0.02655	0.020599	0.011444	0.024872	-0.006256	-0.025482	-0.040741	0.019836	-0.066681	0.000916	-0.005798	-0.094299	-0.048828	-0.003662	0.033569	-0.000458	-0.06546	-0.070801	0.018005	0.07843	0.066223	-0.060883	0.15274	0.003662	0.034027	-0.007477	-0.12558	0.025635	0.001984	-0.000305
46.848	0.014954	0.035706	-0.005341	0.017853	0.009308	0.023193	0.050659	-0.00946	-0.022583	0.011597	-0.067444	-0.014191	-0.029755	-0.020599	0.036469	-0.004578	-0.00412	-0.028381	-0.28976	-0.11337	0.22568	0.0914	0.15457	-0.13123	0.23834	0.005798	0.016022	-0.009308	-0.041809	0.042877	-0.001221	-0.007172
46.849	0.014496	0.03891	0.014801	0.016479	0.007324	-0.030823	0.13016	0.014191	0.001221	-0.002136	-0.08667	0.002899	-0.002899	-0.030365	0.11581	0.004425	-0.052795	-0.022888	-0.35858	-0.06424	0.33142	0.10895	0.14633	0.024414	0.2504	0.005646	0.001984	-0.007629	-0.042572	0.023651	-0.002594	-0.014648
46.85	0.004272	0.06134	0.054169	0.005798	0.00473	-0.005646	0.18005	0.007935	0.022583	0.013733	-0.065613	0.007172	0.039978	-0.11627	0.42847	0.001068	-0.055389	-0.019379	-0.28809	0.001526	0.53146	0.087128	0.13565	0.12482	0.2475	-0.004272	-0.00412	-0.00824	-0.038452	0.028076	-0.003357	-0.012817
46.851	-0.00061	0.063171	-0.079193	-0.009766	0.008087	0.011139	0.20157	0.005341	-0.016937	0.02594	-0.084076	0.002747	0.010223	-0.10635	0.22903	0.009003	-0.050354	-0.047302	-0.033722	0.075073	0.61859	0.10712	0.084686	0.11017	0.17792	-0.007782	-0.01709	-0.010529	-0.023041	0.019836	-0.001678	-0.008698
46.852	0.003204	0.064545	-0.023499	-0.008392	0.003662	-0.010223	0.10391	0.013428	-0.076904	0.016632	0.060577	-0.002899	0.001221	-0.12924	0.45151	0.003967	-0.037079	-0.052032	-0.17288	0.1294	0.56152	0.086212	-0.032196	0.13443	0.06073	0.001373	-0.005798	-0.003967	-0.042877	0.019379	-0.003204	-0.014038
46.853	-0.003815	0.032196	-0.002136	0.005188	0.005798	-0.01297	-0.13931	-0.008392	-0.033569	0.001831	0.19012	0.003204	0.010529	-0.085144	0.56839	0.001831	-0.011139	-0.058899	-0.2214	0.087433	0.40695	0.048828	0.000153	0.15533	-0.026703	-0.00351	-0.020447	-0.007324	-0.091248	0.005035	0.001068	-0.016174
46.854	0.00824	0.020294	-0.045776	0.013428	0.013275	-0.028534	-0.26138	-0.015564	0.061188	0.02533	0.15579	0.004578	-0.02243	-0.004272	0.17517	-0.000458	-0.003052	-0.060577	-0.15915	0.038605	0.34347	0.01297	0.069275	0.10056	-0.23117	0.001373	0.008545	-0.005493	-0.32379	-0.061188	0.002747	-0.015717
46.855	0.002899	0.046082	-0.054779	0.018005	0.007172	-0.005188	-0.25497	-0.007324	0.12787	0.031128	0.028839	-0.000763	-0.001831	0.10208	0.11231	-0.003967	0.002747	-0.053711	-0.18967	0.041351	0.31204	0.015717	0.15732	-0.058441	-0.37094	0.003052	0.06012	-0.005798	-0.17792	-0.052185	-0.003052	-0.010834
46.856	-0.014648	0.045471	-0.036316	0.007935	0.001678	0.045929	-0.10284	-0.006409	0.16876	0.004578	-0.13855	0.00473	0.13229	0.17395	-0.12238	0.001678	0.018158	-0.05188	-0.18951	0.039673	0.30899	0.007477	0.20172	-0.10452	-0.27405	0.001526	0.20538	-0.004425	0.11536	-0.043793	-0.00473	-0.007477
46.857	-0.008392	0.032196	-0.041351	-0.015869	-0.002136	0.051727	0.019379	-0.003357	0.12543	-0.009766	-0.026855	0.007172	0.036774	0.16785	-0.2005	-0.004578	0.027924	-0.036469	-0.17029	0.028381	0.32913	0.021973	0.23346	-0.10849	-0.20371	-0.007629	0.24445	-0.008545	0.22385	-0.016174	-0.002899	-0.010681
46.858	-0.018005	0.037384	-0.012207	-0.01358	-0.00946	0.034332	0.077515	0.010071	-0.097198	0.004578	0.17044	0.000305	-0.11993	0.12955	-0.42267	-0.018616	0.028381	0.014343	-0.20645	-0.048676	0.43442	0.013275	0.23514	-0.10468	-0.13931	-0.010376	0.23621	-0.005951	0.10452	-0.002899	-0.002899	0
46.859	-0.00824	0.04776	-0.000153	-0.00351	-0.011749	0.027924	0.084381	0.014038	-0.11292	-0.031128	0.03067	0.001984	-0.071869	0.11963	0.51559	0.009918	0.06897	0.036469	-0.34744	-0.082397	0.49728	-0.045013	0.12558	-0.15595	-0.10742	-0.006409	0.014954	0.000305	0.061798	0.019073	-0.00351	-0.000763
46.86	0.001678	0.04776	0.050812	-0.012512	-0.006256	0.027008	0.11246	0.009308	-0.076904	-0.07019	-0.10193	-0.000458	0.20798	0.30823	0.75043	0.016479	0.085907	0.057831	-0.45609	-0.067749	0.49454	-0.069885	0.019379	-0.12314	-0.028839	0.00061	-0.2655	-0.007782	0.095215	0.015717	-0.002441	-0.006714
46.861	-0.002289	0.035095	0.03891	-0.001526	-0.00824	0.018768	0.10757	0.014954	-0.046082	-0.066833	-0.07431	-0.016327	0.21454	0.28534	-0.25482	0.020599	0.068817	0.066223	-0.3656	0.047455	0.4483	-0.084381	0.011444	-0.1329	0.085754	-0.009308	-0.36545	-0.000153	-0.004578	0.003815	-0.001221	-0.006561
46.862	-0.016937	0.048981	0.015564	0.014343	-0.002747	0.007782	0.041962	0.033569	-0.03479	-0.023041	0.007935	0.000305	-0.10101	0.018158	-0.73242	0.020447	0.011597	0.053864	0.09552	0.14404	0.26657	-0.011444	0.037994	-0.051727	0.053406	-0.008545	-0.093689	-0.004272	-0.041962	0.011292	-0.008087	-0.009766
46.863	-0.015869	0.064545	-0.024567	-0.003204	0.000916	0.011292	-0.007172	0.020294	-0.021057	-0.002899	0.005951	-0.001526	-0.095673	-0.081787	-0.24704	0.001678	-0.072632	0.065613	-0.080261	0.1503	-0.084076	0.11093	-0.027771	-0.004425	0.15701	-0.00412	0.2327	-0.000458	-0.10208	-0.02655	-0.006104	-0.011292
46.864	-0.004578	0.020905	-0.032349	0.010376	-0.007172	-0.001831	0.009918	0.018005	-0.023041	0.035706	-0.10574	-0.000458	-0.003357	-0.2034	-0.61127	-0.001678	-0.052185	0.030518	-0.33463	0.008698	0.026398	0.14084	-0.071716	-0.052032	0.27679	-0.008545	0.26443	-0.001831	-0.1857	-0.026245	-0.004883	-0.008698
46.865	-0.008698	0.009918	-0.026093	0.00351	-0.003052	0.005341	0.02594	0.005798	-0.00946	0.01358	-0.04776	0.001984	-0.059967	-0.17059	-0.19348	0.005035	-0.018005	0.037384	-0.18967	0.029907	0.14648	0.065918	-0.00061	-0.097961	0.13825	-0.003052	0.049133	-0.000153	-0.16769	-0.018311	-0.007019	-0.010834
46.866	-0.001373	0.0354	0.054932	0.012665	0	-0.004578	0.035248	-0.012207	0.051422	-0.002594	-0.006714	0.000305	-0.15243	-0.22324	0.18875	0.00946	0.006714	0.000305	-0.095215	0.00412	0.19806	0.023499	0.091248	-0.049896	0.069733	-0.002594	-0.03067	-0.006256	-0.073395	-0.056305	-0.004272	-0.010681
46.867	0.004425	0.026398	0.064392	0.004883	0.005951	0.005798	-0.002899	-0.013428	0.093231	0.019379	0.026093	-0.00061	-0.13077	-0.22278	0.10651	0.010071	0.02655	0.015411	0.51224	-0.09964	0.14984	-0.014343	0.12604	-0.058594	0.008392	0.006714	-0.09613	-0.001068	0.020905	-0.12726	-0.000305	-0.009918
46.868	0.005188	-0.007477	0.020447	-0.014648	0.008392	-0.000458	0.028229	0.002899	0.022736	0.042877	0.15366	-0.000153	-0.078735	-0.17395	-0.054626	0.000916	0.029297	-0.032501	0.15808	-0.18356	0.20523	-0.056	0.070953	0.080566	0.00885	0.001526	0.19196	0.001984	-0.013275	-0.16968	-0.003357	-0.010986
46.869	0.003662	0.037689	-0.015411	0.003204	0.006866	-0.01297	0.057678	0.024872	-0.019836	0.03418	0.30212	-0.003967	0.022583	-0.11658	0.007935	0.003815	0.029755	-0.024109	-0.28946	-0.19653	0.36896	-0.053406	0.15274	0.073547	0.033112	0.002594	0.41519	0.001373	0.00473	-0.095673	-0.004883	-0.013428
